<svg width="30" height="26" viewBox="0 0 30 26" fill="none" xmlns="http://www.w3.org/2000/svg">
<path d="M4.28398 1.52019L4.284 1.52015L4.27554 1.5153L3.85057 1.2714C3.54072 1.09357 3.18969 1 2.83244 1H2.70675C2.29807 1 1.90296 1.14664 1.59324 1.41327C1.21661 1.7375 1 2.20979 1 2.70675V7.35652V13.3443C1 14.5746 1.24267 15.7928 1.71412 16.9292C2.06553 17.7763 2.53957 18.567 3.12103 19.2762L3.9357 20.2697C4.70417 21.2069 5.60067 22.0314 6.59883 22.7188C7.99099 23.6776 9.56033 24.3544 11.2124 24.7099C12.1073 24.9025 13.0218 25 13.9375 25H15.0559C16.1904 25 17.3223 24.8927 18.4366 24.6795L19.1255 24.5478C20.3666 24.3103 21.567 23.8953 22.6897 23.3154L22.2308 22.4269L22.6897 23.3154L22.8321 23.2418C24.0059 22.6355 25.0732 21.8422 25.992 20.893L25.2735 20.1974L25.992 20.893L26.1729 20.7061C26.7393 20.121 27.2324 19.4692 27.6414 18.765L28 18.1476C28.655 17.0199 29 15.7389 29 14.4348V2.81339C29 2.18874 28.6659 1.6118 28.1241 1.30087C27.6876 1.05035 27.1642 1.00063 26.6883 1.16449L26.131 1.35638C25.8991 1.43626 25.6776 1.5439 25.4715 1.67697L24.1086 2.55697C22.4984 3.59661 20.5363 3.94115 18.6682 3.51231C18.632 3.504 18.5954 3.49771 18.5585 3.49348L15.2251 3.11087C15.1873 3.10653 15.1492 3.10435 15.1111 3.10435H13.8681C12.526 3.10435 11.1922 3.31431 9.91501 3.72662C9.90194 3.73084 9.88897 3.73532 9.87609 3.74008C9.17254 3.99965 8.38967 3.93005 7.74294 3.55045L4.28398 1.52019Z" stroke="black" stroke-width="2" stroke-linecap="round" stroke-linejoin="round"/>
<path d="M14.0492 15.8228H14.6579H15.2851H15.6384C15.9449 15.8228 16.2361 15.9569 16.4353 16.1898L16.4485 16.2052C16.5088 16.2758 16.558 16.3551 16.5945 16.4404C16.6929 16.6704 16.6929 16.9306 16.5945 17.1607C16.558 17.246 16.5088 17.3253 16.4485 17.3958L16.3812 17.4745C16.2106 17.674 15.9934 17.8282 15.7489 17.9235L15.4942 18.0228L15.0618 18.1913C14.933 18.2415 14.7961 18.2672 14.6579 18.2672C14.5197 18.2672 14.3828 18.2415 14.254 18.1913L13.8216 18.0228L13.5669 17.9235C13.3224 17.8282 13.1052 17.674 12.9347 17.4745L12.8673 17.3958C12.807 17.3253 12.7578 17.246 12.7213 17.1607L12.6852 17.0764C12.6099 16.9002 12.6099 16.7008 12.6852 16.5246C12.7444 16.3863 12.8464 16.2707 12.9763 16.1947L13.2357 16.0431C13.4825 15.8988 13.7633 15.8228 14.0492 15.8228Z" fill="black" stroke="black" stroke-linecap="round" stroke-linejoin="round"/>
<mask id="path-3-inside-1" fill="white">
<ellipse cx="9.28289" cy="13" rx="1.73333" ry="2.03704"/>
</mask>
<ellipse cx="9.28289" cy="13" rx="1.73333" ry="2.03704" fill="black"/>
<path d="M9.01623 13C9.01623 13.1078 8.9784 13.1525 8.98535 13.1443C8.99037 13.1384 9.01447 13.1123 9.06735 13.086C9.12332 13.0582 9.19882 13.037 9.28289 13.037V17.037C11.6354 17.037 13.0162 14.9146 13.0162 13H9.01623ZM9.28289 13.037C9.36697 13.037 9.44246 13.0582 9.49843 13.086C9.55131 13.1123 9.57542 13.1384 9.58044 13.1443C9.58739 13.1525 9.54956 13.1078 9.54956 13H5.54956C5.54956 14.9146 6.93041 17.037 9.28289 17.037V13.037ZM9.54956 13C9.54956 12.8922 9.58739 12.8475 9.58044 12.8557C9.57542 12.8616 9.55131 12.8877 9.49843 12.914C9.44246 12.9418 9.36697 12.963 9.28289 12.963V8.96295C6.93041 8.96295 5.54956 11.0854 5.54956 13H9.54956ZM9.28289 12.963C9.19882 12.963 9.12332 12.9418 9.06735 12.914C9.01447 12.8877 8.99037 12.8616 8.98535 12.8557C8.9784 12.8475 9.01623 12.8922 9.01623 13H13.0162C13.0162 11.0854 11.6354 8.96295 9.28289 8.96295V12.963Z" fill="black" mask="url(#path-3-inside-1)"/>
<mask id="path-5-inside-2" fill="white">
<ellipse cx="20.1544" cy="13" rx="1.73333" ry="2.03704"/>
</mask>
<ellipse cx="20.1544" cy="13" rx="1.73333" ry="2.03704" fill="black"/>
<path d="M19.8878 13C19.8878 13.1078 19.8499 13.1525 19.8569 13.1443C19.8619 13.1384 19.886 13.1123 19.9389 13.086C19.9949 13.0582 20.0704 13.037 20.1544 13.037V17.037C22.5069 17.037 23.8878 14.9146 23.8878 13H19.8878ZM20.1544 13.037C20.2385 13.037 20.314 13.0582 20.37 13.086C20.4229 13.1123 20.447 13.1384 20.452 13.1443C20.4589 13.1525 20.4211 13.1078 20.4211 13H16.4211C16.4211 14.9146 17.802 17.037 20.1544 17.037V13.037ZM20.4211 13C20.4211 12.8922 20.4589 12.8475 20.452 12.8557C20.447 12.8616 20.4229 12.8877 20.37 12.914C20.314 12.9418 20.2385 12.963 20.1544 12.963V8.96295C17.802 8.96295 16.4211 11.0854 16.4211 13H20.4211ZM20.1544 12.963C20.0704 12.963 19.9949 12.9418 19.9389 12.914C19.886 12.8877 19.8619 12.8616 19.8569 12.8557C19.8499 12.8475 19.8878 12.8922 19.8878 13H23.8878C23.8878 11.0854 22.5069 8.96295 20.1544 8.96295V12.963Z" fill="black" mask="url(#path-5-inside-2)"/>
</svg>
