<svg width="36" height="30" viewBox="0 0 36 30" fill="none" xmlns="http://www.w3.org/2000/svg">
<path d="M6.7619 19.0282L5.25457 18.5452C4.03424 18.1542 3.04353 17.253 2.53895 16.0751V16.0751C2.18787 15.2555 2.09274 14.3489 2.26605 13.4742L2.7619 10.9718L3.11346 9.958C3.63459 8.45519 4.48053 7.08569 5.59109 5.94697V5.94697C6.36701 5.15139 7.26081 4.48004 8.24109 3.95654L8.51838 3.80845C9.62711 3.21635 10.8167 2.79008 12.0492 2.54326L12.9242 2.36804C14.1463 2.12328 15.3897 2 16.6361 2H20.4762L22.2996 2.16693C23.7404 2.29883 25.1486 2.67239 26.4654 3.27194V3.27194C27.5468 3.76434 28.5549 4.40392 29.461 5.1725L30.1284 5.73856C30.9272 6.4161 31.6205 7.20906 32.1852 8.09123V8.09123C32.6316 8.78854 32.9942 9.53607 33.2655 10.3183L33.4835 10.9472C33.8245 11.9304 33.9673 12.9714 33.9037 14.0101L33.8599 14.7257C33.8266 15.2696 33.6882 15.8019 33.4524 16.2931L33.2964 16.6181C32.8944 17.4553 32.1656 18.0901 31.2812 18.3735V18.3735C31.0626 18.4436 30.8373 18.4912 30.609 18.5155L29.2381 18.662" stroke="#FFD0B0" stroke-width="3" stroke-linecap="round" stroke-linejoin="round"/>
<ellipse cx="12.6667" cy="14.6338" rx="1.71429" ry="1.83099" fill="#FFD0B0"/>
<ellipse cx="23.3333" cy="14.6338" rx="1.71429" ry="1.83099" fill="#FFD0B0"/>
<path d="M7.33342 9.50708C7.44304 11.4038 7.36209 14.6775 7.26075 17.2289C7.19491 18.8868 7.54688 20.5372 8.31252 22.0091V22.0091C9.04434 23.4161 10.1252 24.6115 11.4516 25.4808L12.0229 25.8553C13.0801 26.5481 14.2596 27.0694 15.4822 27.3899V27.3899C17.0035 27.7887 18.6116 27.8767 20.1659 27.6376L20.6012 27.5707C21.9003 27.3709 23.1433 26.9013 24.2499 26.192L24.2887 26.1672C25.416 25.4447 26.3722 24.4851 27.0906 23.3551V23.3551C27.7536 22.3122 28.1999 21.1464 28.4028 19.9274L28.6371 18.5198C28.7836 17.6396 28.8572 16.7488 28.8572 15.8564V13.9014V9.87328" stroke="#FFD0B0" stroke-width="3" stroke-linecap="round" stroke-linejoin="round"/>
<path d="M16.416 19.9094L17.8096 19.7606H18.5715L19.4065 19.8752C19.726 19.9191 20.0159 20.086 20.2143 20.3403C20.3841 20.5579 20.4763 20.826 20.4763 21.102V21.1338C20.4763 21.4304 20.3772 21.7186 20.1947 21.9524L20.1533 22.0055C19.9905 22.2142 19.7761 22.377 19.5314 22.4778L19.0955 22.6574C18.7495 22.7999 18.3742 22.8732 18 22.8732C17.5051 22.8732 17.0125 22.7431 16.5837 22.4957C16.3858 22.3816 16.2026 22.2439 16.0379 22.0856L15.6765 21.7382C15.5758 21.6415 15.4962 21.525 15.4426 21.3961C15.2659 20.9714 15.3966 20.481 15.7612 20.2006L15.8397 20.1402C16.0069 20.0117 16.2063 19.9318 16.416 19.9094Z" fill="#FFD0B0" stroke="#FFD0B0" stroke-linecap="round" stroke-linejoin="round"/>
</svg>
