<svg width="24" height="24" viewBox="0 0 24 24" fill="none" xmlns="http://www.w3.org/2000/svg">
<path d="M12 15.225C14.0711 15.225 15.75 13.602 15.75 11.6C15.75 9.59794 14.0711 7.97498 12 7.97498C9.92893 7.97498 8.25 9.59794 8.25 11.6C8.25 13.602 9.92893 15.225 12 15.225Z" stroke="#484848" stroke-width="2" stroke-miterlimit="10"/>
<path d="M16.125 3.26245H7.875C5.38972 3.26245 3.375 5.21001 3.375 7.61245V15.5875C3.375 17.9899 5.38972 19.9375 7.875 19.9375H16.125C18.6103 19.9375 20.625 17.9899 20.625 15.5875V7.61245C20.625 5.21001 18.6103 3.26245 16.125 3.26245Z" stroke="#484848" stroke-width="2" stroke-linecap="round" stroke-linejoin="round"/>
<path d="M16.875 7.97505C17.4963 7.97505 18 7.48816 18 6.88755C18 6.28694 17.4963 5.80005 16.875 5.80005C16.2537 5.80005 15.75 6.28694 15.75 6.88755C15.75 7.48816 16.2537 7.97505 16.875 7.97505Z" fill="#484848"/>
</svg>
