<svg width="20" height="20" viewBox="0 0 20 20" fill="none" xmlns="http://www.w3.org/2000/svg">
<path d="M10 13.125C11.7259 13.125 13.125 11.7259 13.125 10C13.125 8.27411 11.7259 6.875 10 6.875C8.27411 6.875 6.875 8.27411 6.875 10C6.875 11.7259 8.27411 13.125 10 13.125Z" stroke="#FFD0B0" stroke-width="2" stroke-miterlimit="10"/>
<path d="M13.4375 2.8125H6.5625C4.49143 2.8125 2.8125 4.49143 2.8125 6.5625V13.4375C2.8125 15.5086 4.49143 17.1875 6.5625 17.1875H13.4375C15.5086 17.1875 17.1875 15.5086 17.1875 13.4375V6.5625C17.1875 4.49143 15.5086 2.8125 13.4375 2.8125Z" stroke="#FFD0B0" stroke-width="2" stroke-linecap="round" stroke-linejoin="round"/>
<path d="M14.0625 6.875C14.5803 6.875 15 6.45527 15 5.9375C15 5.41973 14.5803 5 14.0625 5C13.5447 5 13.125 5.41973 13.125 5.9375C13.125 6.45527 13.5447 6.875 14.0625 6.875Z" fill="#FFD0B0"/>
</svg>
