<svg width="32" height="32" viewBox="0 0 32 32" fill="none" xmlns="http://www.w3.org/2000/svg">
<path d="M28.0783 6.48825C27.3993 5.72714 26.5711 5.1137 25.6452 4.68599C24.7192 4.25829 23.7152 4.02545 22.6955 4.00192C21.6788 3.98055 20.6681 4.16379 19.7236 4.54075C18.7791 4.91771 17.9201 5.4807 17.1975 6.19626L16.0002 7.39352L15.0627 6.457C12.1467 3.53805 7.40059 3.29294 4.49043 5.91989C3.73191 6.60029 3.12005 7.42819 2.69224 8.353C2.26443 9.27782 2.02965 10.2801 2.00223 11.2987C1.97481 12.3174 2.15533 13.3309 2.53277 14.2773C2.91021 15.2238 3.47664 16.0835 4.19746 16.8037L14.5861 27.1924C14.9614 27.5669 15.47 27.7773 16.0002 27.7773C16.5304 27.7773 17.039 27.5669 17.4143 27.1924L27.5432 17.0634C30.4611 14.1445 30.7014 9.40036 28.0783 6.48825Z" fill="white"/>
</svg>
