<svg width="52" height="50" viewBox="0 0 52 50" fill="none" xmlns="http://www.w3.org/2000/svg">
<path d="M27.0819 18.4777L27.0819 18.4777L27.1154 18.4506C27.1154 18.4506 27.1155 18.4506 27.1155 18.4506C28.9428 16.9774 29.2961 14.331 27.9192 12.43C27.5085 11.8629 27.316 11.1668 27.377 10.4692L27.444 9.70344C27.5482 8.512 28.0785 7.39808 28.9376 6.566L29.6458 5.88011C30.3879 5.1614 31.2694 4.60241 32.2359 4.23766L32.3484 4.1952C33.6632 3.69903 35.0949 3.60074 36.4651 3.91258C37.6801 4.18908 38.8019 4.77788 39.7195 5.62077L40.1567 6.02233C40.7099 6.53038 41.1452 7.15323 41.4324 7.84723L41.755 8.62713L42.448 8.34041L41.755 8.62713C41.8594 8.87942 41.9015 9.15314 41.8777 9.42513L41.8442 9.80763C41.7087 11.3569 42.8547 12.7227 44.404 12.8582C44.6006 12.8755 44.7909 12.9367 44.9606 13.0374L46.9523 14.2188L47.8536 14.8495C48.9985 15.6506 49.7472 16.9022 49.9114 18.2898C49.9508 18.6229 49.956 18.9592 49.9267 19.2933L49.7994 20.7485C49.7151 21.7129 49.4408 22.651 48.9925 23.509L48.7673 23.9399C48.4486 24.5499 48.0076 25.0877 47.4717 25.5196C46.4641 26.332 45.1811 26.7227 43.8916 26.6099L43.0372 26.5352C42.6604 26.5022 42.2868 26.4393 41.9199 26.3472L39.4743 25.7327C39.178 25.6582 38.9116 25.495 38.7107 25.265C37.7349 24.1474 36.0885 23.9115 34.8382 24.7101L33.0978 25.8217C33.0746 25.8365 33.0522 25.8526 33.0308 25.8699L29.6062 28.6307L27.5515 30.2872C27.5299 30.3047 27.5092 30.3233 27.4897 30.343L25.4654 32.3842C24.8454 33.0094 24.4639 33.832 24.3872 34.7091C24.3344 35.3121 24.4277 35.9188 24.659 36.4781L24.9024 37.0664C25.2016 37.7896 25.3222 38.5742 25.254 39.3538L25.2276 39.6561C25.1573 40.4591 24.929 41.2403 24.5557 41.9547L24.13 42.7693C23.85 43.3051 23.4993 43.8009 23.0873 44.2434L23.0873 44.2435L23.056 44.2771C22.2414 45.1521 21.2039 45.7888 20.055 46.1191C19.278 46.3424 18.4667 46.4208 17.6614 46.3503L17.2754 46.3165C15.7493 46.183 14.3341 45.4639 13.3266 44.3099C13.005 43.9416 12.7302 43.5349 12.5085 43.0991L11.5628 41.2403C11.4253 40.9701 11.3664 40.6666 11.3929 40.3645C11.543 38.648 10.2732 37.1347 8.55667 36.9845L7.92766 36.9295C7.53422 36.895 7.15676 36.7577 6.83316 36.5313L5.75599 35.7776C5.00048 35.249 4.35418 34.5794 3.85257 33.8057L3.5946 33.4078C3.25158 32.8787 2.99806 32.2967 2.84422 31.6852L2.11688 31.8681L2.84422 31.6851L2.83291 31.6402C2.45741 30.1475 2.70904 28.5666 3.52848 27.2647L4.72331 25.6771C5.25704 24.9679 5.98131 24.425 6.81172 24.1116C7.469 23.8636 8.17365 23.7666 8.8735 23.8278L10.263 23.9494C11.3779 24.0469 12.4709 24.3171 13.5029 24.7503L13.6796 24.8244C13.6967 24.8316 13.7141 24.8382 13.7317 24.8441C15.5112 25.44 17.4647 25.1993 19.0463 24.1891L20.2189 23.4401L20.2314 23.432L24.2877 20.7264C24.3065 20.7139 24.3247 20.7005 24.3423 20.6863L27.0819 18.4777Z" stroke="#FFD0B0" stroke-width="1.5" stroke-linecap="round" stroke-linejoin="round"/>
<line x1="0.5" y1="-0.5" x2="5.75498" y2="-0.5" transform="matrix(0.858994 -0.511986 0.543987 0.839094 21 26.2025)" stroke="#FFD0B0" stroke-linecap="round" stroke-linejoin="round"/>
</svg>
