<svg width="24" height="20" viewBox="0 0 24 20" fill="none" xmlns="http://www.w3.org/2000/svg">
<path d="M23.5221 17.293L19.0155 13.3984C18.8121 13.2227 18.5364 13.125 18.2471 13.125H17.5103C18.7579 11.7461 19.4992 10.0117 19.4992 8.125C19.4992 3.63672 15.291 0 10.0974 0C4.90382 0 0.695618 3.63672 0.695618 8.125C0.695618 12.6133 4.90382 16.25 10.0974 16.25C12.2806 16.25 14.2875 15.6094 15.8831 14.5312V15.168C15.8831 15.418 15.9961 15.6562 16.1995 15.832L20.706 19.7266C21.1309 20.0938 21.818 20.0938 22.2384 19.7266L23.5175 18.6211C23.9424 18.2539 23.9424 17.6602 23.5221 17.293ZM10.0974 13.125C6.9017 13.125 4.31169 10.8906 4.31169 8.125C4.31169 5.36328 6.89718 3.125 10.0974 3.125C13.2931 3.125 15.8831 5.35938 15.8831 8.125C15.8831 10.8867 13.2976 13.125 10.0974 13.125Z" fill="#FFD0B0"/>
</svg>
